<svg viewBox="0 0 310 572" version="1.1" xmlns="http://www.w3.org/2000/svg" xmlns:xlink="http://www.w3.org/1999/xlink" xmlns:sketch="http://www.bohemiancoding.com/sketch/ns">
    <g stroke="none" stroke-width="1" fill="none" fill-rule="evenodd" sketch:type="MSPage">
        <g>
            <g>
                <g>
                    <g>
                        <g>
                            <g>
                                <ellipse fill="#FEEF35" cx="155" cy="560.980736" rx="155" ry="11.0192644"/>
                                <g transform="translate(30.087379, 0.000000)">
                                    <g transform="translate(15.058252, 0.000000)">
                                        <g>
                                            <path d="M25.503682,36.6963548 C25.4981078,36.7063782 25.4936485,36.7175154 25.4891891,36.7280957 C25.3197331,37.1201234 21.2405264,46.3394567 12.1958136,47.8028783 C11.8619184,47.8568935 11.6222274,48.1536986 11.6400649,48.4917111 C11.6467539,48.6158903 11.6768547,48.7417401 11.7292522,48.8675899 C12.1032817,49.7463111 13.7827911,50.9881034 19.6619102,51.9108164 C20.1663762,51.9898901 20.3508825,52.7305107 20.6106407,53.9338798 C20.7109765,54.4016401 20.8157716,54.8849925 20.9607011,55.3844937 C21.1284848,55.9602844 21.5164498,56.0388013 21.8743141,56.039915 C22.217128,56.0404719 22.6686389,55.9536021 23.1914998,55.8533677 C24.0521578,55.6874242 25.2316606,55.4596695 26.7261063,55.4641243 C27.5555487,55.4663517 28.4134196,55.5409707 29.2757498,55.6857536 C31.0416595,55.9842293 32.5383348,57.0472703 34.1241975,58.1732362 C36.4213293,59.8053857 38.7970576,61.4921071 42.5055793,61.5021306 C42.6103745,61.5021306 42.7162845,61.4982326 42.8177351,61.4904366 C42.9766001,61.4982326 43.1349076,61.5038012 43.2960023,61.504358 C47.0056389,61.5138246 49.3897284,59.839354 51.7002384,58.2161143 C53.2894456,57.1007286 54.7905803,56.047711 56.5564899,55.758702 C57.419935,55.617817 58.2783633,55.5476529 59.1078058,55.5498804 C60.5286718,55.5537784 61.6457435,55.7364277 62.6407399,55.9335552 C63.2020628,56.0449267 63.6446551,56.1017262 63.9568109,56.1022831 L64.029833,56.1028399 C64.4785569,56.1039536 64.7466764,55.9051555 64.8732109,55.4774889 C65.0198127,54.9841131 65.1268375,54.5152391 65.2321901,54.0380122 C65.522049,52.7271695 65.7110147,52.1012617 66.1915116,52.0288702 C72.0773197,51.1367844 73.7624033,49.9055724 74.1375476,49.0340903 C74.1916174,48.910468 74.2233904,48.7835045 74.2306369,48.6565409 C74.2507041,48.3190853 74.0121279,48.0211665 73.6787901,47.9649239 C64.6379793,46.4524988 60.6117276,37.2131186 60.4450587,36.820534 C60.4400419,36.8099537 60.4350251,36.7988166 60.4300083,36.7882363 C60.4300083,36.7882363 59.4132725,30.0168486 59.564891,25.4378091 C59.564891,25.4378091 60.2064825,15.6772102 58.8614257,12.6428935 C54.8301572,3.54829622 46.2191179,2.81936971 43.675606,2.81268742 L43.5251023,2.81324427 C43.5251023,2.81324427 42.4777083,2.82104028 42.41249,2.82104028 C39.8751097,2.81435799 31.2785634,3.49706533 27.2010289,12.5643766 C25.8409217,15.5897836 26.1608814,20.8955222 26.4184099,25.1671763 C26.4178525,25.1671763 27.2160793,33.6659361 25.503682,36.6963548" fill="#FFFFFF"/>
                                            <path d="M166.745797,34.0707715 C166.739665,34.0807949 166.735206,34.0919321 166.730746,34.1025124 C166.561848,34.4945401 162.482641,43.7138734 153.437928,45.1772951 C153.104033,45.2313102 152.863785,45.5281153 152.88218,45.8661278 C152.888869,45.9903071 152.918412,46.1161569 152.971367,46.2420067 C153.344839,47.1207279 155.024906,48.3625202 160.903467,49.2852331 C161.408491,49.3643069 161.592997,50.1049274 161.852198,51.3082965 C161.953091,51.7760569 162.057329,52.2594092 162.202816,52.7589104 C162.370042,53.3347011 162.758565,53.413218 163.115871,53.4143317 C163.459243,53.4148886 163.910196,53.3280188 164.433057,53.2277845 C165.294273,53.061284 166.473775,52.8340862 167.967664,52.838541 C168.797663,52.8407685 169.655534,52.9153874 170.517307,53.0601703 C172.283217,53.358646 173.779892,54.421687 175.366312,55.5476529 C177.663444,57.1792455 180.038615,58.8665239 183.747137,58.8765473 C183.852489,58.8765473 183.957842,58.8726493 184.059292,58.8648533 C184.218157,58.8726493 184.377022,58.8782179 184.538117,58.8787747 C188.247754,58.8882413 190.631843,57.2137707 192.941796,55.590531 C194.53156,54.4757022 196.032695,53.4215709 197.798047,53.1331187 C198.661492,52.9927906 199.519921,52.9220697 200.34992,52.9242971 C201.770787,52.9281951 202.887301,53.1108444 203.882297,53.3079719 C204.444178,53.4193434 204.88677,53.4761429 205.198926,53.4772566 L205.271948,53.4772566 C205.720672,53.4783703 205.988791,53.2795722 206.114768,52.8519056 C206.26137,52.3585298 206.368395,51.8896558 206.474305,51.4124289 C206.763606,50.1015862 206.953129,49.4756784 207.433069,49.4032869 C213.318877,48.5112011 215.003961,47.2799891 215.379105,46.4085071 C215.433732,46.2848847 215.464948,46.1579212 215.472752,46.0309577 C215.492261,45.693502 215.254243,45.3955832 214.920347,45.3393406 C205.880094,43.8269155 201.853842,34.5875353 201.686616,34.1949507 C201.682157,34.1838136 201.67714,34.1732333 201.672123,34.162653 C201.672123,34.162653 200.655387,27.3912653 200.806448,22.8122258 C200.806448,22.8122258 201.44804,13.0516269 200.10354,10.0173102 C196.072272,0.922712937 187.460675,0.19434328 184.917163,0.187104132 L184.76666,0.18766099 C184.76666,0.18766099 183.719266,0.195456995 183.654047,0.195456995 C181.116667,0.188774705 172.520678,0.871482044 168.443144,9.93879331 C167.083036,12.9642003 167.402996,18.2699389 167.659967,22.5410362 C167.659967,22.5410362 168.457637,31.0403528 166.745797,34.0707715" fill="#FFFFFF"/>
                                            <path d="M172.800503,14.4732842 C172.804963,16.033599 173.690705,17.2965519 174.781578,17.2937676 C175.871893,17.2909834 176.750946,16.0230187 176.747044,14.4627039 C176.742585,12.9018323 175.856843,11.6388794 174.766527,11.6422205 C173.675654,11.6450048 172.796602,12.9124125 172.800503,14.4732842" fill="#000000"/>
                                            <path d="M136.6027,32.0922567 C136.599355,32.0983821 136.596568,32.1050644 136.593781,32.1111898 C136.495118,32.3406151 134.104897,37.7421332 128.805495,38.5996938 C128.609841,38.6314347 128.46937,38.8051743 128.479961,39.0034155 C128.483863,39.0763639 128.501143,39.1498691 128.532359,39.2233743 C128.751425,39.7384675 129.735273,40.4662803 133.180135,41.006989 C133.475568,41.0532081 133.583708,41.4870002 133.735884,42.1919818 C133.79497,42.4659557 133.856287,42.7493962 133.941015,43.0417464 C134.039121,43.3792021 134.266549,43.4248644 134.476139,43.4254212 C134.677368,43.4259781 134.941585,43.3753041 135.24761,43.3162772 C135.752076,43.219384 136.443278,43.086295 137.318986,43.0885224 C137.805057,43.0896361 138.307851,43.1336279 138.812874,43.2182702 C139.847447,43.3931235 140.724271,44.0162471 141.653491,44.6755664 C142.999663,45.6316908 144.390986,46.6201129 146.563813,46.6262384 C146.625129,46.6262384 146.68756,46.6240109 146.746647,46.6189992 C146.839736,46.6234541 146.932826,46.6273521 147.02703,46.6273521 C149.200414,46.6329207 150.597311,45.6517377 151.950729,44.7011819 C152.88218,44.0474311 153.76179,43.430433 154.796363,43.2611483 C155.301944,43.1787334 155.805295,43.1375259 156.291366,43.1386396 C157.123596,43.140867 157.778008,43.2483405 158.36107,43.3636101 C158.689949,43.4287624 158.949707,43.4621738 159.131984,43.4627307 L159.174905,43.4627307 C159.438008,43.4632876 159.594643,43.3469043 159.66878,43.0963184 C159.75518,42.8073094 159.817611,42.5322218 159.879485,42.2532361 C160.048941,41.4847727 160.159868,41.1183605 160.441366,41.0760393 C163.889572,40.5531501 164.876764,39.8314627 165.096946,39.3213812 C165.128719,39.2484329 165.147113,39.1743708 165.151573,39.1003088 C165.163279,38.9020675 165.023366,38.7277711 164.828269,38.6949165 C159.531654,37.8089561 157.172091,32.3951872 157.074543,32.165205 C157.071756,32.1590796 157.068969,32.1523973 157.065624,32.1462718 C157.065624,32.1462718 156.470298,28.1792188 156.558928,25.4962792 C156.558928,25.4962792 156.93463,19.7773523 156.146994,17.999863 C153.785202,12.6712932 148.739427,12.2441835 147.249441,12.2402855 L147.161368,12.2408424 C147.160811,12.2408424 146.547648,12.2452972 146.509743,12.2452972 C145.023101,12.2413992 139.986245,12.6412229 137.597139,17.9536438 C136.800027,19.7261214 136.987878,22.835057 137.138381,25.3375748 C137.138381,25.3375748 137.606058,30.3169948 136.6027,32.0922567" fill="#FFFFFF"/>
                                            <path d="M152.036015,20.6104111 C152.033785,21.5247712 151.514269,22.2648349 150.875464,22.2631643 C150.23666,22.2614937 149.721603,21.5186458 149.72439,20.6042857 C149.726619,19.6899256 150.245578,18.949862 150.884383,18.9515325 C151.523187,18.9532031 152.038802,19.6960511 152.036015,20.6104111" fill="#000000"/>
                                            <path d="M144.15018,20.5892505 C144.147393,21.5036106 143.628434,22.2436743 142.98963,22.2420037 C142.350825,22.2403331 141.835768,21.4974852 141.837998,20.5831251 C141.840227,19.668765 142.359744,18.9292582 142.998548,18.9309288 C143.637353,18.9325994 144.15241,19.6748905 144.15018,20.5892505" fill="#000000"/>
                                            <path d="M29.7629357,17.1205849 C32.5472535,14.8564022 36.4218868,16.3170395 38.9180179,18.207014 C39.3483469,18.5327757 39.7641829,17.8066334 39.340543,17.4858835 C36.4893347,15.3280605 32.2663134,14.0133199 29.1715121,16.530316 C28.7534464,16.8705559 29.348772,17.4574838 29.7629357,17.1205849" fill="#000000"/>
                                            <path d="M57.3770136,16.530316 C54.2816549,14.0133199 50.059191,15.3280605 47.2079827,17.4858835 C46.7843428,17.8066334 47.2001788,18.5327757 47.6299504,18.207014 C50.1266389,16.3170395 54.0007147,14.8564022 56.78559,17.1205849 C57.1997537,17.4574838 57.7950794,16.8705559 57.3770136,16.530316" fill="#000000"/>
                                            <path d="M31.1871463,20.630458 L54.5057382,20.630458 C54.5057382,20.630458 56.1780011,29.0763163 44.19345,29.0763163 C32.208899,29.0763163 31.3727675,23.7861697 31.1871463,20.630458" fill="#EE4E7F"/>
                                            <path d="M197.983111,13.008192 C194.316396,11.5982288 190.19594,12.6311995 187.728237,15.6677436 C187.490776,15.9606507 187.700366,16.518622 188.135155,16.366043 C189.778432,15.7902523 191.629069,15.3959972 193.347598,15.8091855 C193.872131,15.9350353 194.093985,15.1298193 193.570009,15.0039695 C191.706551,14.5556991 189.698163,14.9349191 187.912744,15.560827 C188.048754,15.7930366 188.184208,16.025803 188.319661,16.2585695 C190.617908,13.4297332 194.359317,12.5053497 197.7607,13.8139649 C198.264609,14.0077513 198.480888,13.199751 197.983111,13.008192" fill="#000000"/>
                                            <path d="M172.764829,19.9794915 C176.589851,27.9609306 190.466289,26.1667356 195.040486,19.9794915 C195.361003,19.5451427 194.634683,19.1297269 194.318068,19.5579504 C190.071078,25.3024927 177.011819,26.9129247 173.486689,19.5579504 C173.253687,19.0718138 172.532941,19.4961392 172.764829,19.9794915" fill="#000000"/>
                                            <path d="M144.15018,23.5272309 L149.723832,23.5272309 C149.723832,23.5272309 150.039333,27.6574432 147.391583,27.6574432 C144.743833,27.6574432 143.927769,25.754661 144.15018,23.5272309" fill="#EE4E7F"/>
                                            <path d="M18.1724813,23.1836498 C18.1724813,23.1836498 16.0225086,20.2646026 17.4210779,18.7126406 C18.0292241,18.0382862 15.1585061,16.0447362 14.3664109,18.9103251 C14.1501315,19.6927099 13.6551417,19.993413 13.0096482,18.9710225 C12.3635973,17.9486321 10.5547662,16.6450286 9.42431649,18.0421842 C8.29442417,19.4393397 10.193,20.2852063 10.9460758,20.653846 C11.6997089,21.0230426 11.3936848,22.2637212 10.457775,22.0175901 C9.52130774,21.7720159 8.01850078,21.8277017 7.93265795,23.0795174 C7.84681512,24.33189 9.64282551,24.5557468 10.4393801,24.5512919 C11.2353773,24.5468371 12.0737384,25.9651532 12.8496684,26.5448419 L13.9996279,32.8813238 L23.6619631,32.1585227 L18.1724813,23.1836498" fill="#FFFFFF"/>
                                            <path d="M19.6468598,13.5327518 C14.2136775,10.4533297 4.96048929,11.6427774 3.85177896,18.7750087 C3.71521082,19.653173 5.05803796,20.0301656 5.19572094,19.145319 C6.15950182,12.9447103 14.224826,12.0604205 18.9433945,14.7350073 C19.726571,15.1788227 20.428364,13.9760104 19.6468598,13.5327518" fill="#FFFFFF"/>
                                            <path d="M9.0764858,9.65758025 C4.65112065,10.7161664 0.0858428307,13.9871476 0.296547961,18.9598854 C0.334452587,19.8541986 1.72800503,19.8580966 1.69010041,18.9598854 C1.50559406,14.6141692 5.62549252,11.913967 9.44717075,11.0001638 C10.3206494,10.7907853 9.94996447,9.44875867 9.0764858,9.65758025" fill="#FFFFFF"/>
                                            <path d="M138.679093,28.901463 C138.679093,29.929422 137.844634,30.7630377 136.815077,30.7630377 L135.485071,30.7630377 C134.455514,30.7630377 133.621055,29.929422 133.621055,28.901463 C133.621055,27.8729471 134.455514,27.0393314 135.485071,27.0393314 L136.815077,27.0393314 C137.844634,27.0393314 138.679093,27.8729471 138.679093,28.901463" fill="#FFFFFF"/>
                                            <path d="M160.000446,28.901463 C160.000446,29.929422 159.165986,30.7630377 158.13643,30.7630377 L156.806423,30.7630377 C155.776867,30.7630377 154.942408,29.929422 154.942408,28.901463 C154.942408,27.8729471 155.776867,27.0393314 156.806423,27.0393314 L158.13643,27.0393314 C159.165986,27.0393314 160.000446,27.8729471 160.000446,28.901463" fill="#FFFFFF"/>
                                            <path d="M211.819972,27.6574432 C211.819972,29.4705714 210.348381,30.9406753 208.533418,30.9406753 L206.18779,30.9406753 C204.372828,30.9406753 202.901236,29.4705714 202.901236,27.6574432 C202.901236,25.8443151 204.372828,24.3742112 206.18779,24.3742112 L208.533418,24.3742112 C210.348381,24.3742112 211.819972,25.8443151 211.819972,27.6574432" fill="#FFFFFF"/>
                                            <path d="M203.576831,25.6694618 C203.576831,25.6694618 205.30595,22.5232168 203.576831,20.4995965 C203.249624,20.1164785 204.155434,18.9331562 205.967052,19.7684425 C207.77867,20.6037288 207.77867,21.4740972 207.360604,22.4135158 C206.942538,23.3534914 207.081894,24.269522 207.360604,24.7339412 L203.576831,25.6694618" fill="#FFFFFF"/>
                                            <path d="M204.945299,17.2937676 L203.783634,11.1371507 L206.988804,11.3225843 L204.945299,17.2937676" fill="#FFFFFF"/>
                                            <path d="M208.382357,18.0978699 L209.497199,13.0861521 L212.470482,14.6637295 L208.382357,18.0978699" fill="#FFFFFF"/>
                                            <path d="M209.962088,19.7684425 L213.724679,17.8656603 L214.467722,20.1860857 L209.962088,19.7684425" fill="#FFFFFF"/>
                                        </g>
                                    </g>
                                    <g transform="translate(0.000000, 35.061296)">
                                        <g transform="translate(0.000000, -0.000000)">
                                            <path d="M250.590764,106.545574 L250.590764,35.1673615 C250.590764,15.7815971 234.821716,0.0669944733 215.368786,0.0669944733 L35.9199744,0.0669944733 C16.4677237,0.0669944733 0.69799615,15.7815971 0.69799615,35.1673615 L0.69799615,58.8245311 L0.69799615,81.2054222 L0.69799615,106.536777 L0.69799615,146.16976 L0.69799615,155.452893 L0.69799615,195.085876 L0.69799615,489.352671 C0.69799615,508.737759 16.4677237,524.451685 35.9199744,524.451685 L215.368786,524.451685 C234.821716,524.451685 250.590764,508.737759 250.590764,489.352671 L250.590764,146.16976 L250.590764,106.545574 Z M242.391636,463.997688 C242.391636,465.135806 241.47491,466.066994 240.354467,466.066994 L10.8333916,466.066994 C9.7129485,466.066994 8.7962223,465.135806 8.7962223,463.997688 L8.7962223,50.1363014 C8.7962223,48.9981826 9.7129485,48.0669945 10.8333916,48.0669945 L240.354467,48.0669945 C241.47491,48.0669945 242.391636,48.9981826 242.391636,50.1363014 L242.391636,463.997688 L242.391636,463.997688 Z" fill="#231F1F"/>
                                            <path d="M250.590764,106.545574 L250.590764,35.1673615 C250.590764,15.7815971 234.821716,0.0669944733 215.368786,0.0669944733 L35.9199744,0.0669944733 C16.4677237,0.0669944733 0.69799615,15.7815971 0.69799615,35.1673615 L0.69799615,81.2054222 L0.69799615,106.536777 L0.69799615,146.16976 L0.69799615,155.452893 L0.69799615,195.085876 L0.69799615,489.352671 C0.69799615,508.737759 16.4677237,524.451685 35.9199744,524.451685 L215.368786,524.451685 C234.821716,524.451685 250.590764,508.737759 250.590764,489.352671 L250.590764,146.16976 L250.590764,106.545574 Z" stroke="#231F1F" stroke-width="3"/>
                                            <path d="M104.58005,494.72035 C104.58005,483.467985 113.73373,474.345232 125.02576,474.345232 C136.31711,474.345232 145.472149,483.467985 145.472149,494.72035 C145.472149,505.972714 136.31711,515.09682 125.02576,515.09682 C113.73373,515.09682 104.58005,505.972714 104.58005,494.72035 L104.58005,494.72035 L104.58005,494.72035 Z" fill="#414042"/>
                                            <path d="M104.58005,494.72035 C104.58005,483.467985 113.73373,474.345232 125.02576,474.345232 C136.31711,474.345232 145.472149,483.467985 145.472149,494.72035 C145.472149,505.972714 136.31711,515.09682 125.02576,515.09682 C113.73373,515.09682 104.58005,505.972714 104.58005,494.72035 L104.58005,494.72035 L104.58005,494.72035 Z" stroke="#58595B" stroke-width="2"/>
                                        </g>
                                    </g>
                                    <path d="M84.7358748,31.9613951 C84.7358748,33.7745233 83.2648408,35.2446272 81.4493207,35.2446272 L79.1036932,35.2446272 C77.2887305,35.2446272 75.8171391,33.7745233 75.8171391,31.9613951 C75.8171391,30.148267 77.2887305,28.6781631 79.1036932,28.6781631 L81.4493207,28.6781631 C83.2648408,28.6781631 84.7358748,30.148267 84.7358748,31.9613951" fill="#FFFFFF"/>
                                </g>
                            </g>
                        </g>
                    </g>
                </g>
            </g>
        </g>
    </g>
</svg>