<svg xmlns="http://www.w3.org/2000/svg" id="Layer_1" data-name="Layer 1" viewBox="0 0 481.53 71.35"><defs><style>.cls-1{fill:#1188fe}.cls-2{fill:#fff}</style></defs><title>Final_BubbleArtboard 10 copy 3</title><path d="M460.83,45.12c-1.16,16.53,20.7,22,20.7,22a81.55,81.55,0,0,1-14.11,1.26,60.77,60.77,0,0,1-21-3.37,37.07,37.07,0,0,1-20.89,6.38H36.61C16.39,71.35,0,55.38,0,35.68S16.39,0,36.61,0h388.9c20.22,0,36.62,16,36.62,35.68a34.86,34.86,0,0,1-1.31,9.46v0" class="cls-1"/><path d="M53.2,49,45.15,18.63h4.12l4.62,19.9q.73,3.13,1.28,6.22,1.15-4.87,1.37-5.62l5.78-20.5h4.84L71.51,34a80.84,80.84,0,0,1,2.36,10.75c.39-1.92.89-4.13,1.51-6.61l4.77-19.51h4L75.86,49H72l-6.4-23.13c-.54-1.93-.86-3.12-1-3.56-.32,1.39-.62,2.58-.9,3.56L57.3,49Z" class="cls-2"/><path d="M88.52,49V18.63h3.72V29.52a8.37,8.37,0,0,1,6.59-3,8.92,8.92,0,0,1,4.25,1,5.72,5.72,0,0,1,2.58,2.66,12.47,12.47,0,0,1,.77,4.93V49H102.7V35.05A5.76,5.76,0,0,0,101.49,31a4.51,4.51,0,0,0-3.43-1.27,6.05,6.05,0,0,0-3.11.86,4.79,4.79,0,0,0-2.08,2.33A10.56,10.56,0,0,0,92.24,37V49Z" class="cls-2"/><path d="M127.52,46.28a13.83,13.83,0,0,1-4,2.48,11.4,11.4,0,0,1-4.11.73,8,8,0,0,1-5.57-1.77,5.84,5.84,0,0,1-1.95-4.53,6,6,0,0,1,.74-2.95,6.11,6.11,0,0,1,1.92-2.14,8.91,8.91,0,0,1,2.69-1.22,25.26,25.26,0,0,1,3.31-.56A33.83,33.83,0,0,0,127.21,35c0-.51,0-.83,0-1a4.09,4.09,0,0,0-1.06-3.21,6.24,6.24,0,0,0-4.24-1.26,6.56,6.56,0,0,0-3.89.92,5.64,5.64,0,0,0-1.85,3.26l-3.64-.5a9,9,0,0,1,1.63-3.78,7.13,7.13,0,0,1,3.29-2.21,14.66,14.66,0,0,1,5-.78,13.23,13.23,0,0,1,4.57.66,6,6,0,0,1,2.59,1.67,5.9,5.9,0,0,1,1.16,2.54A21.27,21.27,0,0,1,131,34.8v5a52.33,52.33,0,0,0,.24,6.57,8,8,0,0,0,.94,2.64h-3.9A8,8,0,0,1,127.52,46.28ZM127.21,38a27.72,27.72,0,0,1-6.09,1.41,13.73,13.73,0,0,0-3.25.75,3.25,3.25,0,0,0-.86,5.46,4.81,4.81,0,0,0,3.3,1,7.73,7.73,0,0,0,3.83-.94,5.85,5.85,0,0,0,2.47-2.58,9,9,0,0,0,.6-3.73Z" class="cls-2"/><path d="M146,45.66l.54,3.29a13.89,13.89,0,0,1-2.81.33,6.33,6.33,0,0,1-3.15-.64A3.62,3.62,0,0,1,139,47a13.5,13.5,0,0,1-.45-4.4V29.9h-2.74V27h2.74V21.55l3.71-2.24V27H146v2.9h-3.74V42.76a6.65,6.65,0,0,0,.19,2.05,1.59,1.59,0,0,0,.64.72,2.51,2.51,0,0,0,1.28.27A13,13,0,0,0,146,45.66Z" class="cls-2"/><path d="M163.53,22.92V18.63h3.72v4.29Zm0,26.07V27h3.72V49Z" class="cls-2"/><path d="M172.5,42.43l3.68-.58a5.18,5.18,0,0,0,1.73,3.39,6,6,0,0,0,4,1.18,5.87,5.87,0,0,0,3.81-1,3.13,3.13,0,0,0,1.24-2.46,2.26,2.26,0,0,0-1.1-2A16.21,16.21,0,0,0,182,39.67a35.33,35.33,0,0,1-5.68-1.79,5.43,5.43,0,0,1-2.4-2.09,5.51,5.51,0,0,1-.82-2.95,5.69,5.69,0,0,1,.67-2.73A6.19,6.19,0,0,1,175.62,28,7.45,7.45,0,0,1,178,27a11.14,11.14,0,0,1,3.22-.45,12.63,12.63,0,0,1,4.54.75,6.16,6.16,0,0,1,2.89,2,7.88,7.88,0,0,1,1.28,3.41l-3.64.5a4,4,0,0,0-1.44-2.65,5.23,5.23,0,0,0-3.36-.95,6.14,6.14,0,0,0-3.67.84,2.49,2.49,0,0,0-1.1,2,2,2,0,0,0,.46,1.31,3.24,3.24,0,0,0,1.43,1c.37.14,1.47.46,3.29.95a46.37,46.37,0,0,1,5.52,1.73,5.57,5.57,0,0,1,2.45,2,5.43,5.43,0,0,1,.89,3.19A6.3,6.3,0,0,1,189.68,46a7,7,0,0,1-3.14,2.55,11.47,11.47,0,0,1-4.64.9c-2.86,0-5-.6-6.53-1.78A8.27,8.27,0,0,1,172.5,42.43Z" class="cls-2"/><path d="M208.21,39.24l3.79-.33a8.43,8.43,0,0,0,1.25,3.73A6.83,6.83,0,0,0,216.31,45a11.4,11.4,0,0,0,4.66.91,11.11,11.11,0,0,0,4.06-.69,5.67,5.67,0,0,0,2.62-1.87,4.37,4.37,0,0,0,.85-2.6,4,4,0,0,0-.82-2.5,6.27,6.27,0,0,0-2.74-1.79,52.24,52.24,0,0,0-5.4-1.48,27.72,27.72,0,0,1-5.86-1.89,8.26,8.26,0,0,1-3.24-2.83,6.88,6.88,0,0,1-1.07-3.78,7.72,7.72,0,0,1,1.3-4.3,8.09,8.09,0,0,1,3.81-3,14.47,14.47,0,0,1,5.57-1,15.13,15.13,0,0,1,6,1.09,8.58,8.58,0,0,1,4,3.2,9.24,9.24,0,0,1,1.49,4.78l-3.86.29a6.16,6.16,0,0,0-2.1-4.35,8.18,8.18,0,0,0-5.29-1.47q-3.65,0-5.31,1.34a4,4,0,0,0-1.67,3.22,3.43,3.43,0,0,0,1.18,2.69c.78.71,2.79,1.43,6.06,2.17A40.59,40.59,0,0,1,227.2,33a9.2,9.2,0,0,1,3.91,3.1,7.49,7.49,0,0,1,1.27,4.32A8.3,8.3,0,0,1,231,45a9.18,9.18,0,0,1-4,3.34,13.93,13.93,0,0,1-5.85,1.19,17.45,17.45,0,0,1-6.9-1.2,9.62,9.62,0,0,1-4.37-3.62A10.12,10.12,0,0,1,208.21,39.24Z" class="cls-2"/><path d="M238.45,49V27h3.35v3.12a7.92,7.92,0,0,1,7-3.62,9.29,9.29,0,0,1,3.66.71,5.88,5.88,0,0,1,2.5,1.88,7.35,7.35,0,0,1,1.16,2.75,22.53,22.53,0,0,1,.2,3.63V49h-3.73V35.61a10,10,0,0,0-.43-3.4,3.56,3.56,0,0,0-1.54-1.81,5,5,0,0,0-2.6-.67,6.06,6.06,0,0,0-4.11,1.51c-1.16,1-1.73,2.92-1.73,5.74V49Z" class="cls-2"/><path d="M277.45,46.28a13.83,13.83,0,0,1-4,2.48,11.32,11.32,0,0,1-4.11.73,8,8,0,0,1-5.57-1.77,5.84,5.84,0,0,1-1.95-4.53,6.13,6.13,0,0,1,2.67-5.09,8.75,8.75,0,0,1,2.68-1.22,25.26,25.26,0,0,1,3.31-.56A33.83,33.83,0,0,0,277.14,35c0-.51,0-.83,0-1a4.09,4.09,0,0,0-1.06-3.21,6.23,6.23,0,0,0-4.24-1.26,6.53,6.53,0,0,0-3.88.92,5.59,5.59,0,0,0-1.86,3.26l-3.64-.5a9,9,0,0,1,1.63-3.78,7.11,7.11,0,0,1,3.3-2.21,14.61,14.61,0,0,1,5-.78,13.23,13.23,0,0,1,4.57.66,6,6,0,0,1,2.59,1.67,5.79,5.79,0,0,1,1.16,2.54,20.13,20.13,0,0,1,.19,3.43v5a52.33,52.33,0,0,0,.24,6.57,8.27,8.27,0,0,0,.94,2.64H278.2A7.82,7.82,0,0,1,277.45,46.28ZM277.14,38a27.57,27.57,0,0,1-6.09,1.41,13.73,13.73,0,0,0-3.25.75,3.25,3.25,0,0,0-.86,5.46,4.81,4.81,0,0,0,3.3,1,7.73,7.73,0,0,0,3.83-.94,5.85,5.85,0,0,0,2.47-2.58,9,9,0,0,0,.6-3.73Z" class="cls-2"/><path d="M287.75,57.42V27h3.39v2.86a8.47,8.47,0,0,1,2.72-2.52,7.44,7.44,0,0,1,3.66-.84,8.64,8.64,0,0,1,5,1.45A8.88,8.88,0,0,1,305.74,32a14.79,14.79,0,0,1,1.1,5.79,14.67,14.67,0,0,1-1.21,6.08,9.15,9.15,0,0,1-3.52,4.14,9,9,0,0,1-4.86,1.44,7,7,0,0,1-3.34-.79,7.47,7.47,0,0,1-2.43-2V57.42Zm3.37-19.3c0,2.83.58,4.92,1.72,6.27a5.27,5.27,0,0,0,4.17,2,5.39,5.39,0,0,0,4.25-2.1q1.77-2.1,1.77-6.51c0-2.81-.58-4.9-1.73-6.3a5.21,5.21,0,0,0-4.13-2.09A5.34,5.34,0,0,0,293,31.65Q291.12,33.87,291.12,38.12Z" class="cls-2"/><path d="M326.75,40.93l3.66.48a9.46,9.46,0,0,1-3.07,5.93,9,9,0,0,1-6.08,2.15,9.47,9.47,0,0,1-7.26-3q-2.75-3-2.74-8.46a15.27,15.27,0,0,1,1.18-6.24,8.17,8.17,0,0,1,3.59-4,10.68,10.68,0,0,1,5.25-1.34,9.11,9.11,0,0,1,5.86,1.81,8.33,8.33,0,0,1,2.92,5.15l-3.62.56a6.11,6.11,0,0,0-1.83-3.34,4.78,4.78,0,0,0-3.18-1.11,5.8,5.8,0,0,0-4.58,2q-1.75,2-1.76,6.39c0,3,.56,5.11,1.7,6.44a5.52,5.52,0,0,0,4.43,2,5.24,5.24,0,0,0,3.66-1.34A6.69,6.69,0,0,0,326.75,40.93Z" class="cls-2"/><path d="M334.66,49V18.63h3.73V29.52a8.35,8.35,0,0,1,6.59-3,8.88,8.88,0,0,1,4.24,1,5.72,5.72,0,0,1,2.58,2.66,12.26,12.26,0,0,1,.78,4.93V49h-3.73V35.05A5.76,5.76,0,0,0,347.64,31a4.51,4.51,0,0,0-3.43-1.27,6.11,6.11,0,0,0-3.12.86A4.89,4.89,0,0,0,339,32.9a10.78,10.78,0,0,0-.62,4.06V49Z" class="cls-2"/><path d="M373.66,46.28a13.79,13.79,0,0,1-4,2.48,11.4,11.4,0,0,1-4.11.73A8,8,0,0,1,360,47.72a5.84,5.84,0,0,1-1.95-4.53,6,6,0,0,1,.73-2.95,6.24,6.24,0,0,1,1.93-2.14,8.85,8.85,0,0,1,2.68-1.22,25.48,25.48,0,0,1,3.32-.56A33.7,33.7,0,0,0,373.35,35c0-.51,0-.83,0-1a4.13,4.13,0,0,0-1.06-3.21,6.25,6.25,0,0,0-4.25-1.26,6.55,6.55,0,0,0-3.88.92,5.64,5.64,0,0,0-1.85,3.26l-3.65-.5a9,9,0,0,1,1.64-3.78,7.07,7.07,0,0,1,3.29-2.21,14.65,14.65,0,0,1,5-.78,13.26,13.26,0,0,1,4.58.66,6,6,0,0,1,2.59,1.67,5.9,5.9,0,0,1,1.16,2.54,21.62,21.62,0,0,1,.18,3.43v5a52.33,52.33,0,0,0,.24,6.57A8.27,8.27,0,0,0,378.3,49h-3.89A8,8,0,0,1,373.66,46.28ZM373.35,38a27.6,27.6,0,0,1-6.08,1.41,13.85,13.85,0,0,0-3.26.75,3.26,3.26,0,0,0-1.47,1.21,3.21,3.21,0,0,0-.51,1.77,3.14,3.14,0,0,0,1.13,2.48,4.81,4.81,0,0,0,3.3,1,7.79,7.79,0,0,0,3.83-.94,5.77,5.77,0,0,0,2.46-2.58,9,9,0,0,0,.6-3.73Z" class="cls-2"/><path d="M392.1,45.66l.54,3.29a13.91,13.91,0,0,1-2.82.33,6.32,6.32,0,0,1-3.14-.64A3.62,3.62,0,0,1,385.1,47a13.5,13.5,0,0,1-.45-4.4V29.9h-2.74V27h2.74V21.55l3.7-2.24V27h3.75v2.9h-3.75V42.76a6.54,6.54,0,0,0,.2,2.05,1.59,1.59,0,0,0,.64.72,2.49,2.49,0,0,0,1.28.27A13.2,13.2,0,0,0,392.1,45.66Z" class="cls-2"/><path d="M403.79,41.51c0-.49,0-.86,0-1.11a10.27,10.27,0,0,1,.62-3.79,8.57,8.57,0,0,1,1.47-2.43,27.61,27.61,0,0,1,2.68-2.6,12.17,12.17,0,0,0,2.51-2.72,4.34,4.34,0,0,0,.58-2.21,5.19,5.19,0,0,0-1.69-3.83,5.8,5.8,0,0,0-4.17-1.64,5.56,5.56,0,0,0-4,1.49,7.8,7.8,0,0,0-2.09,4.66l-3.84-.46a9.91,9.91,0,0,1,3.08-6.5,9.88,9.88,0,0,1,6.76-2.26,10.12,10.12,0,0,1,7.11,2.43,7.66,7.66,0,0,1,2.65,5.86,7.34,7.34,0,0,1-.94,3.66,17.21,17.21,0,0,1-3.64,4.08,18.16,18.16,0,0,0-2.38,2.38,5.29,5.29,0,0,0-.83,1.76,14.93,14.93,0,0,0-.31,3.23ZM403.56,49V44.75h4.24V49Z" class="cls-2"/></svg>